<?xml version="1.0" encoding="utf-8"?>
<!-- Generator: Adobe Illustrator 16.0.3, SVG Export Plug-In . SVG Version: 6.00 Build 0)  -->
<!DOCTYPE svg PUBLIC "-//W3C//DTD SVG 1.1 Basic//EN" "http://www.w3.org/Graphics/SVG/1.1/DTD/svg11-basic.dtd" [
	<!ENTITY ns_extend "http://ns.adobe.com/Extensibility/1.0/">
	<!ENTITY ns_ai "http://ns.adobe.com/AdobeIllustrator/10.0/">
	<!ENTITY ns_graphs "http://ns.adobe.com/Graphs/1.0/">
	<!ENTITY ns_vars "http://ns.adobe.com/Variables/1.0/">
	<!ENTITY ns_imrep "http://ns.adobe.com/ImageReplacement/1.0/">
	<!ENTITY ns_sfw "http://ns.adobe.com/SaveForWeb/1.0/">
	<!ENTITY ns_custom "http://ns.adobe.com/GenericCustomNamespace/1.0/">
	<!ENTITY ns_adobe_xpath "http://ns.adobe.com/XPath/1.0/">
]>
<svg version="1.1" baseProfile="basic" id="Ebene_1" xmlns:x="&ns_extend;" xmlns:i="&ns_ai;" xmlns:graph="&ns_graphs;"
	 xmlns="http://www.w3.org/2000/svg" xmlns:xlink="http://www.w3.org/1999/xlink" x="0px" y="0px" width="441.436px"
	 height="259.752px" viewBox="0 0 441.436 259.752" xml:space="preserve">
<metadata>
	<sfw  xmlns="&ns_sfw;">
		<slices></slices>
		<sliceSourceBounds  height="259.752" width="441.436" y="300.096" x="70.821" bottomLeftOrigin="true"></sliceSourceBounds>
	</sfw>
</metadata>
<g>
	
		<ellipse fill="#E8ECF7" stroke="#E30613" stroke-width="6.6381" stroke-miterlimit="3" cx="220.718" cy="129.876" rx="217.399" ry="126.557"/>
	<g>
		<path fill="#0058A2" stroke="#0058A2" stroke-width="0.6638" d="M267.502,139.65c-3.197,1.299-5.353,1.569-8.777,1.106
			c-1.103,7.986-10.968,24.544-15.862,20.876c-4.402-3.292,8.115-25.497,12.518-24.893c0.869,0.115,0.536,1.59,1.289,2.433
			l4.402-7.693c-0.862-1.184-1.045-2.638-2.504-2.82c-13.753-1.692-27.888,31.316-16.811,35.479
			c14.063,5.27,30.94-28.57,25.588-34.528c-4.541-5.042-14.469,7.667-10.99,13.493c3.434,5.76,17.178-1.137,23.088-9.978
			l1.269-0.129l0.782-1.941l-3.769-3.029C276.199,133.859,273.103,137.385,267.502,139.65L267.502,139.65z"/>
		<path fill="#0058A2" stroke="#0058A2" stroke-width="0.6638" d="M164.388,94.443c-3.213,1.259-5.349,1.526-8.773,1.111
			c-1.108,7.981-10.971,24.534-15.868,20.871c-4.4-3.292,8.116-25.494,12.518-24.896c0.87,0.124,0.531,1.598,1.29,2.437l4.403-7.694
			c-0.867-1.183-1.044-2.638-2.502-2.82c-13.76-1.689-27.889,31.322-16.815,35.477c14.07,5.276,30.943-28.569,25.59-34.522
			c-4.537-5.051-14.096,7.456-10.991,13.491c3.362,6.521,12.732-0.163,17.737-6.269l0.794-2.538
			C169.512,91.838,167.699,93.15,164.388,94.443L164.388,94.443z"/>
		<path fill="#0058A2" stroke="#0058A2" stroke-width="0.6638" d="M196.282,51.75l-10.038,3.137
			c-11.833,23.631-29.057,58.447-18.401,58.847c16.975,0.635,49.133-40.887,39.117-43.645
			c-10.234-2.822-36.427,32.339-24.835,37.692c23.732,10.952,78.953-88.901,52.582-66.677c-17.14,14.442-38.52,65.627-23.063,61.796
			c8.167-2.027,14.287-8.773,22.296-21.979c-6.43,7.378-15.918,19.266-19.377,14.543c-3.296-4.499,5.528-34.47,16.2-44.067
			c9.035-8.122-20.239,50.87-38.604,50.545c-9.083-0.158-4.126-18.738,5.37-22.308c9.595-3.611-19.305,39.008-26.235,27.984
			C169.111,104.15,182.44,74.311,196.282,51.75L196.282,51.75z"/>
		<path fill="#0058A2" stroke="#0058A2" stroke-width="0.6638" d="M175.372,68.062c-2.686,2.847-6.568,6.361-3.918,9.25
			c6.621,7.218,19.632-2.822,24.957-9.25c-4.535,2.657-12.225,6.271-18.05,5.476C175.948,73.214,175.866,70.441,175.372,68.062
			L175.372,68.062z"/>
		<path fill="#0058A2" stroke="#0058A2" stroke-width="0.6638" d="M135.49,38.156l-9.953,5.2
			c-1.906,18.001-18.493,57.76-39.243,77.671c-18.418,17.669-40.123,23.165-31.594,7.747c15.046-27.2,67.757-28.32,93.763-47.752
			c26.01-19.441,46.569-54.899,29.626-52.676c-29.175,3.821-56.532,60.242-69.51,98.791l11.366-3.525
			c1.922-10.623,24.741-80.535,54.019-91.123c10.385-3.76-19.908,43.226-37.623,51.955c-39.294,19.363-77.48,20.054-89.75,44.33
			c-11.147,22.063,23.154,14.759,45.121-7.747C114.971,97.19,132.002,57.574,135.49,38.156L135.49,38.156z"/>
		<path fill="#0058A2" stroke="#0058A2" stroke-width="0.6638" d="M162.859,135.319c-8.195-3.61-20.07,13.4-12.585,16.392
			c19.028,7.612,41.124-42.375-0.389-30.055c-45.38,13.467-88.768,92.745-19.847,90.837c35.133-0.981,100.285-30.183,153.865-37.966
			c54.162-7.864,85.918,8.333,103.696,15.34c-21.391-17.097-65.09-29.042-111.339-24.495
			c-68.775,6.759-142.593,59.353-163.534,38.41c-15.183-15.185,13.334-72.213,46.849-75.972c15.198-1.703,6.507,12.79,3.284,14.334
			C163.561,139.58,165.3,136.393,162.859,135.319L162.859,135.319z"/>
		<path fill="#0058A2" stroke="#0058A2" stroke-width="0.6638" d="M152.128,190.911c16.253,1.675,73.209-93.234,46.853-71.01
			c-17.143,14.446-39.224,68.274-23.765,64.442c8.177-2.032,14.982-11.419,22.987-24.623c-6.424,7.375-16.666,18.509-20.115,13.791
			c-3.287-4.499,6.268-34.471,16.943-44.067c9.03-8.12-26.517,58.731-44.879,58.414L152.128,190.911L152.128,190.911z"/>
		<path fill="#0058A2" stroke="#0058A2" stroke-width="0.6638" d="M207.083,130.344c2.421-4.389,6.571-6.741,9.247-5.261
			c2.681,1.483,2.882,6.248,0.444,10.642c-2.433,4.388-6.578,6.745-9.257,5.261C204.839,139.498,204.645,134.738,207.083,130.344
			L207.083,130.344z"/>
		<path fill="#0058A2" stroke="#0058A2" stroke-width="0.6638" d="M212.314,146.505l-10.355,2.91
			c-3.607,9.073-19.739,36.728-3.216,26.228c62.539-39.783,65.521-90.393,47.765-69.732c-16.329,18.991-21.518,42.871-34.479,70.672
			c-7.428,15.957-11.534,25-18.646,41.105c0.173,1.093,1.034,1.298,1.802,1.021c4.002-1.417,9.411-4.688,12.243-10.232
			c4.215-8.221,6.867-19.249,11.427-31.498c9.188-24.666,18.91-50.303,24.61-62.844c9.369-20.608,8.129,25.445-37.5,53.007
			C200.064,170.705,209.672,153.069,212.314,146.505L212.314,146.505z"/>
		<path fill="#0058A2" stroke="#0058A2" stroke-width="0.6638" d="M215.787,168.902c2.682-3.377,3.565-6.278,3.225-10.575
			c-0.195-2.462-2.861-3.831-1.812-6.063c0.896-1.898,2.557-2.872,4.65-2.709l19.597-4.128l-2.457,3.231l-13.404,3.991
			l-6.702,14.182L215.787,168.902L215.787,168.902z"/>
		<path fill="#0058A2" stroke="#0058A2" stroke-width="0.6638" d="M300.847,123.613l-13.577,30.462l10.338-3.71
			c10.218-23.313,12.073-24.997,16.572-26.189c9.75-2.571-12.424,24.948-2.152,25.363c5.868,0.24,13.825-8.047,20.251-14.882
			l0.386-1.909c-3.893,4.089-11.668,10.672-13.805,11.31c-5.205,1.547,14.729-25.462,2.891-25.038
			c-6.01,0.219-8.936,2.562-12.612,6.178l2.38-4.848L300.847,123.613L300.847,123.613z"/>
		<path fill-rule="evenodd" clip-rule="evenodd" fill="#0058A2" stroke="#0058A2" stroke-width="0.6638" d="M265.613,143.914
			c6.884-1.789,22.525-18.402,19.864-22.5c-3.665-5.633-16.901,7.752-11.884,11.501c3.636,2.709,8.836-4.89,16.372-5.143
			c5.796-0.186-5.505,13.394-7.713,20.447c-2.161,6.891,11.673-6.002,14.754-10.931l-0.066,2.466
			c-3.183,4.738-19.782,18.909-23.923,17.574c-6.283-2.032,13.352-24.452,8.281-24.318c-2.062,0.053-7.624,1.912-5.333-0.096
			c-1.117,1.346-1.637,2.246-2.958,3.426c-2.032,1.815-3.459,2.651-6.045,3.529L265.613,143.914L265.613,143.914z"/>
		<path fill="#0058A2" stroke="#0058A2" stroke-width="0.6638" d="M341.361,97.205c2.434-4.389,6.579-6.746,9.26-5.257
			c2.676,1.484,2.876,6.245,0.443,10.638c-2.434,4.389-6.582,6.746-9.255,5.257C339.123,106.359,338.933,101.598,341.361,97.205
			L341.361,97.205z"/>
		<path fill="#0058A2" stroke="#0058A2" stroke-width="0.6638" d="M357.166,121.337c-4.8,4.437-10.415,8.739-16.915,12.665
			c-5.901,3.563,3.711-14.071,6.361-20.636l-10.365,2.91c-3.615,9.073-19.743,36.732-3.22,26.227
			c8.811-5.604,16.44-11.419,22.994-17.23L357.166,121.337L357.166,121.337z"/>
		<path fill-rule="evenodd" clip-rule="evenodd" fill="#0058A2" stroke="#0058A2" stroke-width="0.6638" d="M374.415,112.179
			c-4.228,8.22-7.127,17.217-13.691,18.686c-10.266,2.294,0.793-23.323,12.17-23.304
			C374.453,107.561,376.012,109.388,374.415,112.179L374.415,112.179z M377.295,107.414c0.601-2.643-2.356-4.123-4.384-3.798
			c-22.602,3.578-36.073,39.77-15.861,34.323c5.362-1.44,9.054-5.062,11.577-8.311c-0.457,2.152,0.713,4.614,2.238,5.057
			c3.811,1.102,17.006-8.715,26.356-20.04c0,0-15.175,12.375-17.904,12.34c-3.1-0.043,3.949-15.38,9.546-25.764l-10.461,3.482
			L377.295,107.414L377.295,107.414z"/>
		<path fill-rule="evenodd" clip-rule="evenodd" fill="#0058A2" stroke="#0058A2" stroke-width="0.6638" d="M155.461,168.936
			c-4.225,8.219-7.129,17.22-13.691,18.685c-10.268,2.295,0.799-23.316,12.17-23.303
			C155.498,164.323,157.056,166.15,155.461,168.936L155.461,168.936z M158.347,164.176c0.596-2.645-2.364-4.122-4.389-3.801
			c-22.594,3.576-36.068,39.77-15.859,34.319c5.362-1.44,9.054-5.061,11.578-8.304c-0.453,2.146,0.744,4.508,2.235,5.052
			c5.594,2.045,15.005-10.666,24.354-21.986c0,0-13.166,14.319-15.9,14.286c-3.098-0.039,3.956-15.38,9.542-25.765l-10.457,3.483
			L158.347,164.176L158.347,164.176z"/>
		<polygon fill="#0058A2" stroke="#0058A2" stroke-width="0.6638" points="338.905,145.881 337.284,152.53 329.823,151.51 
			336.319,156.844 334.611,163.66 340.216,160.076 346.627,165.295 343.631,157.835 349.25,154.156 341.758,153.136 
			338.905,145.881 		"/>
		<polygon fill="#0058A2" stroke="#0058A2" stroke-width="0.6638" points="363.338,151.815 360.581,157.889 353.102,155.75 
			358.882,161.837 356.012,168.053 362.328,165.529 368.036,171.497 366.2,163.932 372.564,161.309 365.06,159.164 363.338,151.815 
					"/>
		<polygon fill="#0058A2" stroke="#0058A2" stroke-width="0.6638" points="386.378,161.593 383.011,167.28 375.607,164.541 
			380.919,170.992 377.424,176.802 384.094,174.893 389.35,181.208 388.171,173.663 394.884,171.66 387.458,168.917 
			386.378,161.593 		"/>
	</g>
	<path fill="#FFFFFF" d="M83.873,57.814c-2.768-4.13-14.383-1.201-25.949,6.546c-11.561,7.746-18.691,17.373-15.925,21.503
		c2.767,4.129,14.38,1.2,25.946-6.547C79.505,71.571,86.639,61.943,83.873,57.814z"/>
	<g>
		<path fill="#E30613" stroke="#E63027" stroke-width="0.6638" d="M266.315,137.361c-3.197,1.297-5.353,1.57-8.778,1.106
			c-1.102,7.985-10.967,24.544-15.861,20.875c-4.402-3.291,8.114-25.497,12.519-24.891c0.867,0.113,0.533,1.587,1.287,2.433
			l4.403-7.695c-0.864-1.183-1.044-2.637-2.504-2.818c-13.753-1.694-27.889,31.315-16.812,35.475
			c14.063,5.271,30.94-28.569,25.588-34.525c-4.541-5.043-14.468,7.665-10.99,13.494c3.435,5.757,17.178-1.141,23.088-9.979
			l1.27-0.131l0.781-1.94l-3.768-3.029C275.011,131.569,271.916,135.096,266.315,137.361L266.315,137.361z"/>
		<path fill="#E30613" stroke="#E63027" stroke-width="0.6638" d="M163.196,92.153c-3.213,1.259-5.35,1.526-8.772,1.111
			c-1.109,7.98-10.972,24.533-15.869,20.871c-4.4-3.292,8.118-25.493,12.518-24.896c0.87,0.124,0.531,1.598,1.289,2.437l4.404-7.694
			c-0.869-1.182-1.044-2.636-2.502-2.818c-13.76-1.69-27.89,31.321-16.814,35.476c14.069,5.276,30.942-28.568,25.59-34.522
			c-4.537-5.05-14.097,7.456-10.991,13.49c3.36,6.521,12.732-0.162,17.736-6.268l0.795-2.537
			C168.319,89.548,166.506,90.86,163.196,92.153L163.196,92.153z"/>
		<path fill="#E30613" stroke="#E63027" stroke-width="0.6638" d="M195.088,49.46l-10.037,3.137
			c-11.833,23.631-29.057,58.447-18.402,58.846c16.975,0.635,49.137-40.887,39.115-43.644
			c-10.232-2.822-36.424,32.339-24.833,37.691c23.731,10.953,78.958-88.9,52.587-66.675c-17.141,14.441-38.525,65.626-23.064,61.795
			c8.167-2.027,14.287-8.773,22.297-21.981c-6.431,7.379-15.919,19.267-19.379,14.544c-3.295-4.499,5.529-34.469,16.201-44.066
			c9.034-8.122-20.241,50.868-38.61,50.545c-9.083-0.158-4.126-18.737,5.371-22.308c9.597-3.611-19.305,39.008-26.236,27.984
			C167.918,101.86,181.247,72.021,195.088,49.46L195.088,49.46z"/>
		<path fill="#E30613" stroke="#E63027" stroke-width="0.6638" d="M174.18,65.771c-2.686,2.849-6.569,6.361-3.919,9.251
			c6.622,7.219,19.632-2.822,24.958-9.251c-4.535,2.658-12.225,6.271-18.049,5.478C174.754,70.923,174.674,68.152,174.18,65.771
			L174.18,65.771z"/>
		<path fill="#E30613" stroke="#E63027" stroke-width="0.6638" d="M134.298,35.867l-9.955,5.2
			c-1.904,18.001-18.492,57.761-39.243,77.671c-18.417,17.669-40.122,23.166-31.592,7.748
			c15.046-27.201,67.757-28.322,93.762-47.752c26.009-19.441,46.571-54.899,29.626-52.676
			c-29.175,3.821-56.534,60.243-69.511,98.792l11.366-3.525c1.922-10.624,24.741-80.536,54.019-91.124
			c10.385-3.759-19.91,43.227-37.624,51.956c-39.293,19.363-77.479,20.054-89.749,44.331c-11.147,22.061,23.153,14.759,45.12-7.748
			C113.777,94.901,130.81,55.284,134.298,35.867L134.298,35.867z"/>
		<path fill="#E30613" stroke="#E63027" stroke-width="0.6638" d="M161.667,133.03c-8.195-3.612-20.071,13.398-12.585,16.389
			c19.028,7.615,41.123-42.374-0.389-30.052c-45.38,13.467-88.769,92.745-19.847,90.836c35.133-0.981,100.29-30.182,153.869-37.966
			c54.163-7.862,85.919,8.334,103.697,15.341c-21.391-17.098-65.091-29.043-111.339-24.496
			c-68.778,6.759-142.598,59.354-163.54,38.411c-15.184-15.184,13.333-72.213,46.849-75.972c15.198-1.703,6.507,12.79,3.285,14.335
			C162.369,137.289,164.106,134.103,161.667,133.03L161.667,133.03z"/>
		<path fill="#E30613" stroke="#E63027" stroke-width="0.6638" d="M150.936,188.622c16.253,1.675,73.214-93.235,46.853-71.011
			c-17.144,14.444-39.226,68.272-23.765,64.442c8.176-2.032,14.981-11.421,22.987-24.624c-6.424,7.375-16.666,18.509-20.115,13.792
			c-3.287-4.5,6.267-34.472,16.945-44.069c9.028-8.119-26.519,58.731-44.883,58.417L150.936,188.622L150.936,188.622z"/>
		<path fill="#E30613" stroke="#E63027" stroke-width="0.6638" d="M205.888,128.055c2.424-4.389,6.579-6.741,9.256-5.262
			c2.68,1.483,2.881,6.249,0.442,10.642c-2.433,4.389-6.583,6.746-9.259,5.262C203.647,137.208,203.452,132.447,205.888,128.055
			L205.888,128.055z"/>
		<path fill="#E30613" stroke="#E63027" stroke-width="0.6638" d="M211.126,144.216l-10.361,2.91
			c-3.606,9.074-19.738,36.728-3.214,26.227c62.543-39.784,65.525-90.39,47.769-69.731c-16.328,18.99-21.519,42.869-34.479,70.671
			c-7.433,15.956-11.541,25.002-18.651,41.105c0.171,1.093,1.035,1.297,1.802,1.022c4.002-1.416,9.412-4.691,12.245-10.23
			c4.218-8.222,6.87-19.25,11.431-31.5c9.187-24.669,18.909-50.304,24.609-62.844c9.369-20.609,8.128,25.443-37.504,53.006
			C198.872,168.416,208.478,150.78,211.126,144.216L211.126,144.216z"/>
		<path fill="#E30613" stroke="#E63027" stroke-width="0.6638" d="M214.6,166.612c2.68-3.378,3.563-6.276,3.224-10.575
			c-0.195-2.463-2.862-3.832-1.813-6.063c0.897-1.897,2.558-2.872,4.651-2.709l19.597-4.127l-2.457,3.229l-13.404,3.994
			l-6.702,14.181L214.6,166.612L214.6,166.612z"/>
		<path fill="#E30613" stroke="#E63027" stroke-width="0.6638" d="M299.659,121.323l-13.577,30.462l10.339-3.709
			c10.217-23.313,12.072-24.998,16.572-26.189c9.748-2.571-12.423,24.948-2.152,25.363c5.868,0.237,13.823-8.048,20.251-14.884
			l0.385-1.909c-3.892,4.09-11.668,10.671-13.804,11.312c-5.205,1.547,14.73-25.463,2.891-25.039
			c-6.012,0.219-8.936,2.562-12.613,6.177l2.381-4.846L299.659,121.323L299.659,121.323z"/>
		<path fill-rule="evenodd" clip-rule="evenodd" fill="#E30613" stroke="#E63027" stroke-width="0.6638" d="M264.425,141.625
			c6.884-1.788,22.525-18.404,19.864-22.501c-3.664-5.634-16.901,7.752-11.884,11.502c3.635,2.709,8.835-4.891,16.372-5.143
			c5.797-0.186-5.506,13.395-7.714,20.444c-2.161,6.894,11.674-5.999,14.755-10.928l-0.066,2.466
			c-3.183,4.737-19.782,18.909-23.924,17.574c-6.282-2.032,13.353-24.452,8.282-24.319c-2.063,0.052-7.623,1.912-5.334-0.095
			c-1.115,1.345-1.636,2.247-2.958,3.425c-2.031,1.818-3.458,2.651-6.043,3.531L264.425,141.625L264.425,141.625z"/>
		<path fill="#E30613" stroke="#E63027" stroke-width="0.6638" d="M340.173,94.915c2.432-4.389,6.577-6.746,9.258-5.257
			c2.677,1.483,2.877,6.245,0.445,10.638c-2.434,4.389-6.584,6.746-9.255,5.257C337.936,104.069,337.744,99.308,340.173,94.915
			L340.173,94.915z"/>
		<path fill="#E30613" stroke="#E63027" stroke-width="0.6638" d="M355.978,119.048c-4.799,4.438-10.415,8.739-16.917,12.665
			c-5.9,3.563,3.712-14.072,6.365-20.637l-10.367,2.91c-3.615,9.073-19.744,36.731-3.22,26.227
			c8.811-5.604,16.438-11.42,22.992-17.229L355.978,119.048L355.978,119.048z"/>
		<path fill-rule="evenodd" clip-rule="evenodd" fill="#E30613" stroke="#E63027" stroke-width="0.6638" d="M373.227,109.888
			c-4.227,8.219-7.128,17.217-13.692,18.686c-10.265,2.294,0.792-23.322,12.17-23.303
			C373.266,105.271,374.826,107.098,373.227,109.888L373.227,109.888z M376.108,105.123c0.601-2.641-2.357-4.121-4.384-3.796
			c-22.603,3.578-36.073,39.771-15.861,34.323c5.362-1.441,9.055-5.062,11.578-8.311c-0.458,2.15,0.71,4.612,2.236,5.057
			c3.812,1.102,17.007-8.715,26.355-20.041c0,0-15.174,12.375-17.902,12.341c-3.102-0.043,3.95-15.379,9.545-25.765l-10.461,3.483
			L376.108,105.123L376.108,105.123z"/>
		<path fill-rule="evenodd" clip-rule="evenodd" fill="#E30613" stroke="#E63027" stroke-width="0.6638" d="M154.269,166.645
			c-4.224,8.221-7.129,17.222-13.691,18.687c-10.268,2.294,0.799-23.317,12.171-23.304
			C154.304,162.031,155.863,163.858,154.269,166.645L154.269,166.645z M157.155,161.884c0.596-2.642-2.365-4.12-4.389-3.801
			c-22.595,3.579-36.068,39.77-15.859,34.321c5.363-1.439,9.054-5.06,11.579-8.303c-0.453,2.146,0.744,4.509,2.234,5.052
			c5.593,2.045,15.006-10.668,24.355-21.988c0,0-13.166,14.322-15.899,14.288c-3.098-0.039,3.955-15.379,9.541-25.765l-10.457,3.482
			L157.155,161.884L157.155,161.884z"/>
		<polygon fill="#E30613" stroke="#E63027" stroke-width="0.6638" points="337.717,143.591 336.096,150.241 328.633,149.221 
			335.13,154.552 333.423,161.371 339.029,157.787 345.439,163.006 342.444,155.545 348.064,151.867 340.569,150.846 
			337.717,143.591 		"/>
		<polygon fill="#E30613" stroke="#E63027" stroke-width="0.6638" points="362.151,149.524 359.393,155.599 351.913,153.461 
			357.695,159.548 354.822,165.764 361.138,163.241 366.848,169.208 365.012,161.643 371.376,159.018 363.872,156.876 
			362.151,149.524 		"/>
		<polygon fill="#E30613" stroke="#E63027" stroke-width="0.6638" points="385.191,159.305 381.822,164.991 374.419,162.252 
			379.734,168.701 376.236,174.512 382.907,172.604 388.163,178.919 386.984,171.373 393.697,169.37 386.268,166.627 
			385.191,159.305 		"/>
	</g>
	<path fill="none" stroke="#005095" stroke-width="0.961" d="M100.981,139.273c0,3.76-3.053,6.806-6.813,6.806
		c-3.754,0-6.801-3.046-6.801-6.806c0-3.759,3.047-6.81,6.801-6.81C97.928,132.464,100.981,135.515,100.981,139.273z"/>
	<path fill="#005095" d="M92.33,135.844h2.64c0.524,0,1.404,0.107,1.404,1.417c0,1.249-0.816,1.463-1.593,1.463h-2.45V135.844z
		 M92.33,139.704h2.562c1.263,0,1.397,0.813,1.397,1.508c0,0.319,0.03,1.601,0.185,2.127h1.295v-0.196
		c-0.321-0.197-0.382-0.375-0.392-0.846l-0.063-1.534c-0.046-1.179-0.496-1.389-0.941-1.59c0.506-0.32,1.093-0.778,1.093-2.026
		c0-1.799-1.286-2.278-2.574-2.278h-3.621v8.471h1.059V139.704z"/>
</g>
</svg>
